/* XPM */
static char *f04dea1bfdf0473da778d07a8d48486cHvpLhenP0LsDbsDu[] = {
/* columns rows colors chars-per-pixel */
"32 32 15 1 ",
"  c None",
". c #58882B",
"X c #4B692F",
"o c #B5E882",
"O c #74C43B",
"+ c #5FA72D",
"@ c #77391E",
"# c #55230D",
"$ c #94070E",
"% c #57040D",
"& c #FF3B1F",
"* c #FFA485",
"= c #DA1A12",
"- c #C80805",
"; c white",
/* pixels */
"                                ",
"                      ...XX     ",
"                    ..ooO.OX    ",
"                   .Oo...++XX   ",
"             @#   XXXXX++..++X  ",
"             @#  X     XXX+.+X  ",
"              @#X         X+.X  ",
"        $$$$$%@#  %%%%%%   XXX  ",
"      $$&&&&&&@#%%***&==%%      ",
"     $&&&=&===$@#$$&&*&=--%     ",
"    $&&==&*&-$$##--$=&&=--$%    ",
"    $&=&=&**&---$$$===&&=-$%    ",
"   $&=&*&=&***&&&===-==&=-$$%   ",
"   $&=&**&=&&&***&=-=-=&=-$$%   ",
"   $=&*****=&=&&=&==--===-$-%   ",
"   $=&*****&&==&&=-=-=-=--$-%   ",
"   $==&***&&===&===--==--$$-%   ",
"   $&=&**&====&&=-=-==--$$$-%   ",
"   $&=&&&=====&=-=--=--$-$$-%   ",
"   $&&***&==&&=-=--=----$$$-%   ",
"    $=&**&&&&===--=---$-$$-%    ",
"    $=&*&=&-==------$--$$$-%    ",
"     $=&&&==------$--$-$$-%     ",
"     $==&=------$--$$-$$$-%     ",
"      %-=&=---$--$$$-$$$$%      ",
"      %--==--$-$$$--$$$-$%      ",
"       %----$-$$$$$$$$-$%       ",
"       %--$--$$$-$$$$-$%%       ",
"        %--$$$$%$---$$%%        ",
"         %%$$$$%%$-$%%%         ",
"           %%%%  %%%%%          ",
"                                "
};
