/* XPM */
static char *result[] = {
/* columns rows colors chars-per-pixel */
"32 32 5 1 ",
"  c black",
". c #283633",
"X c #DADAD8",
"o c #F4F4F4",
"O c white",
/* pixels */
"                                ",
"                                ",
"                                ",
"                                ",
"                                ",
"                                ",
"                                ",
"                                ",
"                                ",
"                                ",
"             .......            ",
"            .XXooooo.           ",
"           .XXooooooo.          ",
"           .Xoooooooo.          ",
"           .Xoooooooo.          ",
"           .Xooo.oo.o.          ",
"           .Xooo.oo.o.          ",
"           .Xoooooooo.          ",
"           ..Xoooooo..          ",
"          .oo.XXXXX.oo.         ",
"          .oX.ooooo.oX.         ",
"           ...ooooo...          ",
"             .XXoo.             ",
"             .XXoo.             ",
"                                ",
"                                ",
"                                ",
"                                ",
"                                ",
"                                ",
"                                ",
"                                "
};
