/* XPM */
static char *result[] = {
/* columns rows colors chars-per-pixel */
"32 32 5 1 ",
"  c black",
". c #283633",
"X c #F4F4F4",
"o c #DADAD8",
"O c white",
/* pixels */
"                                ",
"                                ",
"                                ",
"                                ",
"                                ",
"                                ",
"                                ",
"                                ",
"                                ",
"                                ",
"             .......            ",
"            .XXXXXXX.           ",
"           .XXXXXXXXX.          ",
"           .XXXXXXXXX.          ",
"           .XXXXXXXXX.          ",
"          .oXXXXXXXXXo.         ",
"          .ooXXXXXXXoo.         ",
"           .ooXXXXXoo.          ",
"            .ooooooo.           ",
"            ..ooooo..           ",
"           .Xo.XXXo.X.          ",
"           .oo.XXXX.o.          ",
"            ..XXoXX..           ",
"             .oo.oo.            ",
"                                ",
"                                ",
"                                ",
"                                ",
"                                ",
"                                ",
"                                ",
"                                "
};
